<svg width="187" height="36" viewBox="0 0 187 36" fill="none" xmlns="http://www.w3.org/2000/svg">
<rect y="3" width="46" height="30" rx="5" fill="url(#paint0_linear_76_3189)"/>
<g filter="url(#filter0_i_76_3189)">
<path d="M31.6031 18.0867L18.6985 25.4454L18.6985 10.728L31.6031 18.0867Z" fill="white"/>
</g>
<path d="M62.0568 9.54545L66.5994 23.2841H66.7784L71.3125 9.54545H74.7898L68.6364 27H64.733L58.5881 9.54545H62.0568ZM77.0888 27V9.54545H88.4411V12.196H80.2507V16.9347H87.853V19.5852H80.2507V24.3494H88.5092V27H77.0888ZM91.6669 27V9.54545H103.019V12.196H94.8288V16.9347H102.431V19.5852H94.8288V24.3494H103.087V27H91.6669ZM120.589 9.54545V27H117.776L109.552 15.1108H109.407V27H106.245V9.54545H109.075L117.29 21.4432H117.444V9.54545H120.589ZM139.631 18.2727C139.631 20.1534 139.278 21.7642 138.574 23.1051C137.875 24.4403 136.92 25.4631 135.71 26.1733C134.506 26.8835 133.139 27.2386 131.611 27.2386C130.082 27.2386 128.713 26.8835 127.503 26.1733C126.298 25.4574 125.344 24.4318 124.639 23.0966C123.94 21.7557 123.591 20.1477 123.591 18.2727C123.591 16.392 123.94 14.7841 124.639 13.4489C125.344 12.108 126.298 11.0824 127.503 10.3722C128.713 9.66193 130.082 9.30682 131.611 9.30682C133.139 9.30682 134.506 9.66193 135.71 10.3722C136.92 11.0824 137.875 12.108 138.574 13.4489C139.278 14.7841 139.631 16.392 139.631 18.2727ZM136.452 18.2727C136.452 16.9489 136.244 15.8324 135.83 14.9233C135.42 14.0085 134.852 13.3182 134.125 12.8523C133.398 12.3807 132.56 12.1449 131.611 12.1449C130.662 12.1449 129.824 12.3807 129.097 12.8523C128.369 13.3182 127.798 14.0085 127.384 14.9233C126.974 15.8324 126.77 16.9489 126.77 18.2727C126.77 19.5966 126.974 20.7159 127.384 21.6307C127.798 22.5398 128.369 23.2301 129.097 23.7017C129.824 24.1676 130.662 24.4006 131.611 24.4006C132.56 24.4006 133.398 24.1676 134.125 23.7017C134.852 23.2301 135.42 22.5398 135.83 21.6307C136.244 20.7159 136.452 19.5966 136.452 18.2727ZM141.08 12.196V9.54545H155.006V12.196H149.611V27H146.474V12.196H141.08ZM157.69 27V9.54545H169.043V12.196H160.852V16.9347H168.455V19.5852H160.852V24.3494H169.111V27H157.69ZM181.754 14.3438C181.675 13.5994 181.339 13.0199 180.749 12.6051C180.163 12.1903 179.402 11.983 178.464 11.983C177.805 11.983 177.24 12.0824 176.768 12.2812C176.297 12.4801 175.936 12.75 175.686 13.0909C175.436 13.4318 175.308 13.821 175.303 14.2585C175.303 14.6222 175.385 14.9375 175.55 15.2045C175.72 15.4716 175.95 15.6989 176.24 15.8864C176.53 16.0682 176.851 16.2216 177.203 16.3466C177.555 16.4716 177.911 16.5767 178.268 16.6619L179.905 17.071C180.564 17.2244 181.197 17.4318 181.805 17.6932C182.419 17.9545 182.967 18.2841 183.45 18.6818C183.939 19.0795 184.325 19.5597 184.609 20.1222C184.893 20.6847 185.036 21.3437 185.036 22.0994C185.036 23.1222 184.774 24.0227 184.251 24.8011C183.729 25.5739 182.973 26.179 181.984 26.6165C181.001 27.0483 179.811 27.2642 178.413 27.2642C177.055 27.2642 175.876 27.054 174.876 26.6335C173.882 26.2131 173.104 25.5994 172.541 24.7926C171.984 23.9858 171.683 23.0028 171.638 21.8438H174.749C174.794 22.4517 174.982 22.9574 175.311 23.3608C175.641 23.7642 176.07 24.0653 176.598 24.2642C177.132 24.4631 177.729 24.5625 178.388 24.5625C179.075 24.5625 179.678 24.4602 180.195 24.2557C180.717 24.0455 181.126 23.7557 181.422 23.3864C181.717 23.0114 181.868 22.5739 181.874 22.0739C181.868 21.6193 181.734 21.2443 181.473 20.9489C181.212 20.6477 180.845 20.3977 180.374 20.1989C179.908 19.9943 179.362 19.8125 178.737 19.6534L176.751 19.142C175.314 18.7727 174.178 18.2131 173.342 17.4631C172.513 16.7074 172.098 15.7045 172.098 14.4545C172.098 13.4261 172.376 12.5256 172.933 11.7528C173.496 10.9801 174.26 10.3807 175.226 9.95454C176.192 9.52273 177.286 9.30682 178.507 9.30682C179.746 9.30682 180.831 9.52273 181.763 9.95454C182.7 10.3807 183.436 10.9744 183.97 11.7358C184.504 12.4915 184.78 13.3608 184.797 14.3438H181.754Z" fill="#F3F4F6"/>
<defs>
<filter id="filter0_i_76_3189" x="18.6985" y="10.728" width="12.9046" height="17.7174" filterUnits="userSpaceOnUse" color-interpolation-filters="sRGB">
<feFlood flood-opacity="0" result="BackgroundImageFix"/>
<feBlend mode="normal" in="SourceGraphic" in2="BackgroundImageFix" result="shape"/>
<feColorMatrix in="SourceAlpha" type="matrix" values="0 0 0 0 0 0 0 0 0 0 0 0 0 0 0 0 0 0 127 0" result="hardAlpha"/>
<feOffset dy="3"/>
<feGaussianBlur stdDeviation="2"/>
<feComposite in2="hardAlpha" operator="arithmetic" k2="-1" k3="1"/>
<feColorMatrix type="matrix" values="0 0 0 0 0 0 0 0 0 0 0 0 0 0 0 0 0 0 0.25 0"/>
<feBlend mode="normal" in2="shape" result="effect1_innerShadow_76_3189"/>
</filter>
<linearGradient id="paint0_linear_76_3189" x1="46" y1="18" x2="0" y2="18" gradientUnits="userSpaceOnUse">
<stop stop-color="#1E429F"/>
<stop offset="1" stop-color="#1C64F2"/>
</linearGradient>
</defs>
</svg>
