<svg width="187" height="37" viewBox="0 0 187 37" fill="none" xmlns="http://www.w3.org/2000/svg">
<rect y="3.5" width="46" height="30" rx="5" fill="url(#paint0_linear_44_13558)"/>
<g filter="url(#filter0_i_44_13558)">
<path d="M31.603 18.5867L18.6984 25.9454L18.6984 11.228L31.603 18.5867Z" fill="white"/>
</g>
<path d="M62.0568 10.0455L66.5994 23.7841H66.7784L71.3125 10.0455H74.7898L68.6364 27.5H64.733L58.5881 10.0455H62.0568ZM77.0888 27.5V10.0455H88.4411V12.696H80.2507V17.4347H87.853V20.0852H80.2507V24.8494H88.5092V27.5H77.0888ZM91.6669 27.5V10.0455H103.019V12.696H94.8288V17.4347H102.431V20.0852H94.8288V24.8494H103.087V27.5H91.6669ZM120.589 10.0455V27.5H117.776L109.552 15.6108H109.407V27.5H106.245V10.0455H109.075L117.29 21.9432H117.444V10.0455H120.589ZM139.631 18.7727C139.631 20.6534 139.278 22.2642 138.574 23.6051C137.875 24.9403 136.92 25.9631 135.71 26.6733C134.506 27.3835 133.139 27.7386 131.611 27.7386C130.082 27.7386 128.713 27.3835 127.503 26.6733C126.298 25.9574 125.344 24.9318 124.639 23.5966C123.94 22.2557 123.591 20.6477 123.591 18.7727C123.591 16.892 123.94 15.2841 124.639 13.9489C125.344 12.608 126.298 11.5824 127.503 10.8722C128.713 10.1619 130.082 9.80682 131.611 9.80682C133.139 9.80682 134.506 10.1619 135.71 10.8722C136.92 11.5824 137.875 12.608 138.574 13.9489C139.278 15.2841 139.631 16.892 139.631 18.7727ZM136.452 18.7727C136.452 17.4489 136.244 16.3324 135.83 15.4233C135.42 14.5085 134.852 13.8182 134.125 13.3523C133.398 12.8807 132.56 12.6449 131.611 12.6449C130.662 12.6449 129.824 12.8807 129.097 13.3523C128.369 13.8182 127.798 14.5085 127.384 15.4233C126.974 16.3324 126.77 17.4489 126.77 18.7727C126.77 20.0966 126.974 21.2159 127.384 22.1307C127.798 23.0398 128.369 23.7301 129.097 24.2017C129.824 24.6676 130.662 24.9006 131.611 24.9006C132.56 24.9006 133.398 24.6676 134.125 24.2017C134.852 23.7301 135.42 23.0398 135.83 22.1307C136.244 21.2159 136.452 20.0966 136.452 18.7727ZM141.08 12.696V10.0455H155.006V12.696H149.611V27.5H146.474V12.696H141.08ZM157.69 27.5V10.0455H169.043V12.696H160.852V17.4347H168.455V20.0852H160.852V24.8494H169.111V27.5H157.69ZM181.754 14.8438C181.675 14.0994 181.339 13.5199 180.749 13.1051C180.163 12.6903 179.402 12.483 178.464 12.483C177.805 12.483 177.24 12.5824 176.768 12.7812C176.297 12.9801 175.936 13.25 175.686 13.5909C175.436 13.9318 175.308 14.321 175.303 14.7585C175.303 15.1222 175.385 15.4375 175.55 15.7045C175.72 15.9716 175.95 16.1989 176.24 16.3864C176.53 16.5682 176.851 16.7216 177.203 16.8466C177.555 16.9716 177.911 17.0767 178.268 17.1619L179.905 17.571C180.564 17.7244 181.197 17.9318 181.805 18.1932C182.419 18.4545 182.967 18.7841 183.45 19.1818C183.939 19.5795 184.325 20.0597 184.609 20.6222C184.893 21.1847 185.036 21.8437 185.036 22.5994C185.036 23.6222 184.774 24.5227 184.251 25.3011C183.729 26.0739 182.973 26.679 181.984 27.1165C181.001 27.5483 179.811 27.7642 178.413 27.7642C177.055 27.7642 175.876 27.554 174.876 27.1335C173.882 26.7131 173.104 26.0994 172.541 25.2926C171.984 24.4858 171.683 23.5028 171.638 22.3438H174.749C174.794 22.9517 174.982 23.4574 175.311 23.8608C175.641 24.2642 176.07 24.5653 176.598 24.7642C177.132 24.9631 177.729 25.0625 178.388 25.0625C179.075 25.0625 179.678 24.9602 180.195 24.7557C180.717 24.5455 181.126 24.2557 181.422 23.8864C181.717 23.5114 181.868 23.0739 181.874 22.5739C181.868 22.1193 181.734 21.7443 181.473 21.4489C181.212 21.1477 180.845 20.8977 180.374 20.6989C179.908 20.4943 179.362 20.3125 178.737 20.1534L176.751 19.642C175.314 19.2727 174.178 18.7131 173.342 17.9631C172.513 17.2074 172.098 16.2045 172.098 14.9545C172.098 13.9261 172.376 13.0256 172.933 12.2528C173.496 11.4801 174.26 10.8807 175.226 10.4545C176.192 10.0227 177.286 9.80682 178.507 9.80682C179.746 9.80682 180.831 10.0227 181.763 10.4545C182.7 10.8807 183.436 11.4744 183.97 12.2358C184.504 12.9915 184.78 13.8608 184.797 14.8438H181.754Z" fill="#111928"/>
<defs>
<filter id="filter0_i_44_13558" x="18.6985" y="11.228" width="12.9045" height="17.7174" filterUnits="userSpaceOnUse" color-interpolation-filters="sRGB">
<feFlood flood-opacity="0" result="BackgroundImageFix"/>
<feBlend mode="normal" in="SourceGraphic" in2="BackgroundImageFix" result="shape"/>
<feColorMatrix in="SourceAlpha" type="matrix" values="0 0 0 0 0 0 0 0 0 0 0 0 0 0 0 0 0 0 127 0" result="hardAlpha"/>
<feOffset dy="3"/>
<feGaussianBlur stdDeviation="2"/>
<feComposite in2="hardAlpha" operator="arithmetic" k2="-1" k3="1"/>
<feColorMatrix type="matrix" values="0 0 0 0 0 0 0 0 0 0 0 0 0 0 0 0 0 0 0.25 0"/>
<feBlend mode="normal" in2="shape" result="effect1_innerShadow_44_13558"/>
</filter>
<linearGradient id="paint0_linear_44_13558" x1="46" y1="18.5" x2="0" y2="18.5" gradientUnits="userSpaceOnUse">
<stop stop-color="#1E429F"/>
<stop offset="1" stop-color="#1C64F2"/>
</linearGradient>
</defs>
</svg>
